# xmcd CD database file
#
# Track frame offsets:
#	150
#	18786
#	39770
#	56744
#	80147
#	101752
#	118228
#	133189
#	153959
#	170764
#	187947
#	203135
#	221986
#
# Disc length: 3248 seconds
#
# Revision: 0
# Processed by: cddbd v1.4PL0 Copyright (c) Steve Scherf et al.
# Submitted via: CDex 1.51
#
DISCID=b80cae0d
DTITLE=Modena Jazz Trio - Fra tanta gente
DYEAR=2003
DGENRE=Jazz
TTITLE0=Take the "A" train
TTITLE1=Lazily
TTITLE2=Modna
TTITLE3=All of me
TTITLE4=My one and only love
TTITLE5=I'm in the mood of love
TTITLE6=How high's the moon
TTITLE7=44 gatti
TTITLE8=Stella by starlight
TTITLE9=Fra tanta gente
TTITLE10=Makin' whoopee
TTITLE11=Più in alto
TTITLE12=Once i loved
EXTD=YEAR: 2003
EXTT0=
EXTT1=
EXTT2=
EXTT3=
EXTT4=
EXTT5=
EXTT6=
EXTT7=
EXTT8=
EXTT9=
EXTT10=
EXTT11=
EXTT12=
PLAYORDER=
